<svg xmlns="http://www.w3.org/2000/svg" width="1100" height="720" viewBox="0 0 1100 720" role="img" aria-labelledby="title desc">
<title id="title">Maize: genotype quality distributions</title>
<desc id="desc">Maize: genotype quality distributions</desc>
<rect width="100%" height="100%" fill="#ffffff"/>
<text x="28.0" y="30.0" font-family="Arial,sans-serif" font-size="18px" font-weight="600" fill="#172033" text-anchor="start">Maize: genotype quality distributions</text>
<rect x="70.0" y="80.0" width="450.0" height="240.0" fill="#f8fafc" stroke="#cbd5e1"/>
<text x="295.0" y="354.0" font-family="Arial,sans-serif" font-size="11px" font-weight="400" fill="#475569" text-anchor="middle">MAF</text>
<text x="34.0" y="200.0" font-family="Arial,sans-serif" font-size="11px" font-weight="400" fill="#475569" text-anchor="middle" transform="rotate(-90 34.0 200.0)">count</text>
<text x="70.0" y="70.0" font-family="Arial,sans-serif" font-size="13px" font-weight="600" fill="#172033" text-anchor="start">Marker MAF</text>
<rect x="71.0" y="82.0" width="20.5" height="238.0" fill="#2563eb" opacity="0.82"/>
<rect x="93.5" y="276.6" width="20.5" height="43.4" fill="#2563eb" opacity="0.82"/>
<rect x="116.0" y="289.8" width="20.5" height="30.2" fill="#2563eb" opacity="0.82"/>
<rect x="138.5" y="293.9" width="20.5" height="26.1" fill="#2563eb" opacity="0.82"/>
<rect x="161.0" y="270.6" width="20.5" height="49.4" fill="#2563eb" opacity="0.82"/>
<rect x="183.5" y="277.8" width="20.5" height="42.2" fill="#2563eb" opacity="0.82"/>
<rect x="206.0" y="277.6" width="20.5" height="42.4" fill="#2563eb" opacity="0.82"/>
<rect x="228.5" y="282.9" width="20.5" height="37.1" fill="#2563eb" opacity="0.82"/>
<rect x="251.0" y="282.3" width="20.5" height="37.7" fill="#2563eb" opacity="0.82"/>
<rect x="273.5" y="280.3" width="20.5" height="39.7" fill="#2563eb" opacity="0.82"/>
<rect x="296.0" y="277.4" width="20.5" height="42.6" fill="#2563eb" opacity="0.82"/>
<rect x="318.5" y="276.6" width="20.5" height="43.4" fill="#2563eb" opacity="0.82"/>
<rect x="341.0" y="283.0" width="20.5" height="37.0" fill="#2563eb" opacity="0.82"/>
<rect x="363.5" y="280.3" width="20.5" height="39.7" fill="#2563eb" opacity="0.82"/>
<rect x="386.0" y="284.6" width="20.5" height="35.4" fill="#2563eb" opacity="0.82"/>
<rect x="408.5" y="278.1" width="20.5" height="41.9" fill="#2563eb" opacity="0.82"/>
<rect x="431.0" y="282.6" width="20.5" height="37.4" fill="#2563eb" opacity="0.82"/>
<rect x="453.5" y="281.9" width="20.5" height="38.1" fill="#2563eb" opacity="0.82"/>
<rect x="476.0" y="282.5" width="20.5" height="37.5" fill="#2563eb" opacity="0.82"/>
<rect x="498.5" y="282.1" width="20.5" height="37.9" fill="#2563eb" opacity="0.82"/>
<text x="70.0" y="336.0" font-family="Arial,sans-serif" font-size="10px" font-weight="400" fill="#64748b" text-anchor="start">0</text>
<text x="520.0" y="336.0" font-family="Arial,sans-serif" font-size="10px" font-weight="400" fill="#64748b" text-anchor="end">0.5</text>
<rect x="600.0" y="80.0" width="450.0" height="240.0" fill="#f8fafc" stroke="#cbd5e1"/>
<text x="825.0" y="354.0" font-family="Arial,sans-serif" font-size="11px" font-weight="400" fill="#475569" text-anchor="middle">missing rate</text>
<text x="564.0" y="200.0" font-family="Arial,sans-serif" font-size="11px" font-weight="400" fill="#475569" text-anchor="middle" transform="rotate(-90 564.0 200.0)">count</text>
<text x="600.0" y="70.0" font-family="Arial,sans-serif" font-size="13px" font-weight="600" fill="#172033" text-anchor="start">Marker missingness</text>
<rect x="601.0" y="82.0" width="20.5" height="238.0" fill="#dc2626" opacity="0.82"/>
<rect x="623.5" y="316.7" width="20.5" height="3.3" fill="#dc2626" opacity="0.82"/>
<rect x="646.0" y="318.1" width="20.5" height="1.9" fill="#dc2626" opacity="0.82"/>
<rect x="668.5" y="318.7" width="20.5" height="1.3" fill="#dc2626" opacity="0.82"/>
<rect x="691.0" y="318.7" width="20.5" height="1.3" fill="#dc2626" opacity="0.82"/>
<rect x="713.5" y="319.0" width="20.5" height="1.0" fill="#dc2626" opacity="0.82"/>
<rect x="736.0" y="319.2" width="20.5" height="0.8" fill="#dc2626" opacity="0.82"/>
<rect x="758.5" y="319.4" width="20.5" height="0.6" fill="#dc2626" opacity="0.82"/>
<rect x="781.0" y="319.5" width="20.5" height="0.5" fill="#dc2626" opacity="0.82"/>
<rect x="803.5" y="319.6" width="20.5" height="0.4" fill="#dc2626" opacity="0.82"/>
<rect x="826.0" y="319.6" width="20.5" height="0.4" fill="#dc2626" opacity="0.82"/>
<rect x="848.5" y="319.5" width="20.5" height="0.5" fill="#dc2626" opacity="0.82"/>
<rect x="871.0" y="319.7" width="20.5" height="0.3" fill="#dc2626" opacity="0.82"/>
<rect x="893.5" y="319.8" width="20.5" height="0.2" fill="#dc2626" opacity="0.82"/>
<rect x="916.0" y="319.8" width="20.5" height="0.2" fill="#dc2626" opacity="0.82"/>
<rect x="938.5" y="319.8" width="20.5" height="0.2" fill="#dc2626" opacity="0.82"/>
<rect x="961.0" y="319.7" width="20.5" height="0.3" fill="#dc2626" opacity="0.82"/>
<rect x="983.5" y="319.9" width="20.5" height="0.1" fill="#dc2626" opacity="0.82"/>
<rect x="1006.0" y="318.4" width="20.5" height="1.6" fill="#dc2626" opacity="0.82"/>
<rect x="1028.5" y="319.4" width="20.5" height="0.6" fill="#dc2626" opacity="0.82"/>
<text x="600.0" y="336.0" font-family="Arial,sans-serif" font-size="10px" font-weight="400" fill="#64748b" text-anchor="start">0.0016</text>
<text x="1050.0" y="336.0" font-family="Arial,sans-serif" font-size="10px" font-weight="400" fill="#64748b" text-anchor="end">0.2</text>
<rect x="70.0" y="410.0" width="450.0" height="240.0" fill="#f8fafc" stroke="#cbd5e1"/>
<text x="295.0" y="684.0" font-family="Arial,sans-serif" font-size="11px" font-weight="400" fill="#475569" text-anchor="middle">missing rate</text>
<text x="34.0" y="530.0" font-family="Arial,sans-serif" font-size="11px" font-weight="400" fill="#475569" text-anchor="middle" transform="rotate(-90 34.0 530.0)">count</text>
<text x="70.0" y="400.0" font-family="Arial,sans-serif" font-size="13px" font-weight="600" fill="#172033" text-anchor="start">Sample missingness</text>
<rect x="71.0" y="412.0" width="20.5" height="238.0" fill="#059669" opacity="0.82"/>
<rect x="93.5" y="650.0" width="20.5" height="0.0" fill="#059669" opacity="0.82"/>
<rect x="116.0" y="650.0" width="20.5" height="0.0" fill="#059669" opacity="0.82"/>
<rect x="138.5" y="650.0" width="20.5" height="0.0" fill="#059669" opacity="0.82"/>
<rect x="161.0" y="650.0" width="20.5" height="0.0" fill="#059669" opacity="0.82"/>
<rect x="183.5" y="650.0" width="20.5" height="0.0" fill="#059669" opacity="0.82"/>
<rect x="206.0" y="650.0" width="20.5" height="0.0" fill="#059669" opacity="0.82"/>
<rect x="228.5" y="650.0" width="20.5" height="0.0" fill="#059669" opacity="0.82"/>
<rect x="251.0" y="650.0" width="20.5" height="0.0" fill="#059669" opacity="0.82"/>
<rect x="273.5" y="650.0" width="20.5" height="0.0" fill="#059669" opacity="0.82"/>
<rect x="296.0" y="650.0" width="20.5" height="0.0" fill="#059669" opacity="0.82"/>
<rect x="318.5" y="650.0" width="20.5" height="0.0" fill="#059669" opacity="0.82"/>
<rect x="341.0" y="650.0" width="20.5" height="0.0" fill="#059669" opacity="0.82"/>
<rect x="363.5" y="650.0" width="20.5" height="0.0" fill="#059669" opacity="0.82"/>
<rect x="386.0" y="650.0" width="20.5" height="0.0" fill="#059669" opacity="0.82"/>
<rect x="408.5" y="650.0" width="20.5" height="0.0" fill="#059669" opacity="0.82"/>
<rect x="431.0" y="650.0" width="20.5" height="0.0" fill="#059669" opacity="0.82"/>
<rect x="453.5" y="650.0" width="20.5" height="0.0" fill="#059669" opacity="0.82"/>
<rect x="476.0" y="650.0" width="20.5" height="0.0" fill="#059669" opacity="0.82"/>
<rect x="498.5" y="649.6" width="20.5" height="0.4" fill="#059669" opacity="0.82"/>
<text x="70.0" y="666.0" font-family="Arial,sans-serif" font-size="10px" font-weight="400" fill="#64748b" text-anchor="start">0.00072</text>
<text x="520.0" y="666.0" font-family="Arial,sans-serif" font-size="10px" font-weight="400" fill="#64748b" text-anchor="end">1</text>
<rect x="600.0" y="410.0" width="450.0" height="240.0" fill="#f8fafc" stroke="#cbd5e1"/>
<text x="825.0" y="684.0" font-family="Arial,sans-serif" font-size="11px" font-weight="400" fill="#475569" text-anchor="middle">heterozygosity</text>
<text x="564.0" y="530.0" font-family="Arial,sans-serif" font-size="11px" font-weight="400" fill="#475569" text-anchor="middle" transform="rotate(-90 564.0 530.0)">count</text>
<text x="600.0" y="400.0" font-family="Arial,sans-serif" font-size="13px" font-weight="600" fill="#172033" text-anchor="start">Marker heterozygosity</text>
<rect x="601.0" y="412.0" width="20.5" height="238.0" fill="#d97706" opacity="0.82"/>
<rect x="623.5" y="606.5" width="20.5" height="43.5" fill="#d97706" opacity="0.82"/>
<rect x="646.0" y="619.9" width="20.5" height="30.1" fill="#d97706" opacity="0.82"/>
<rect x="668.5" y="627.7" width="20.5" height="22.3" fill="#d97706" opacity="0.82"/>
<rect x="691.0" y="582.9" width="20.5" height="67.1" fill="#d97706" opacity="0.82"/>
<rect x="713.5" y="591.3" width="20.5" height="58.7" fill="#d97706" opacity="0.82"/>
<rect x="736.0" y="594.9" width="20.5" height="55.1" fill="#d97706" opacity="0.82"/>
<rect x="758.5" y="597.7" width="20.5" height="52.3" fill="#d97706" opacity="0.82"/>
<rect x="781.0" y="570.1" width="20.5" height="79.9" fill="#d97706" opacity="0.82"/>
<rect x="803.5" y="559.2" width="20.5" height="90.8" fill="#d97706" opacity="0.82"/>
<rect x="826.0" y="568.0" width="20.5" height="82.0" fill="#d97706" opacity="0.82"/>
<rect x="848.5" y="590.1" width="20.5" height="59.9" fill="#d97706" opacity="0.82"/>
<rect x="871.0" y="618.3" width="20.5" height="31.7" fill="#d97706" opacity="0.82"/>
<rect x="893.5" y="621.9" width="20.5" height="28.1" fill="#d97706" opacity="0.82"/>
<rect x="916.0" y="630.0" width="20.5" height="20.0" fill="#d97706" opacity="0.82"/>
<rect x="938.5" y="640.0" width="20.5" height="10.0" fill="#d97706" opacity="0.82"/>
<rect x="961.0" y="646.5" width="20.5" height="3.5" fill="#d97706" opacity="0.82"/>
<rect x="983.5" y="646.7" width="20.5" height="3.3" fill="#d97706" opacity="0.82"/>
<rect x="1006.0" y="648.0" width="20.5" height="2.0" fill="#d97706" opacity="0.82"/>
<rect x="1028.5" y="649.1" width="20.5" height="0.9" fill="#d97706" opacity="0.82"/>
<text x="600.0" y="666.0" font-family="Arial,sans-serif" font-size="10px" font-weight="400" fill="#64748b" text-anchor="start">0</text>
<text x="1050.0" y="666.0" font-family="Arial,sans-serif" font-size="10px" font-weight="400" fill="#64748b" text-anchor="end">0.986</text>
</svg>
